<svg width="49" height="49" viewBox="0 0 49 49" fill="none" xmlns="http://www.w3.org/2000/svg">
<path d="M0.328125 10.6875C0.328125 5.16465 4.80528 0.6875 10.3281 0.6875H38.3281C43.851 0.6875 48.3281 5.16465 48.3281 10.6875V38.6875C48.3281 44.2104 43.851 48.6875 38.3281 48.6875H10.3281C4.80528 48.6875 0.328125 44.2103 0.328125 38.6875V10.6875Z" fill="#00B8DB"/>
<path d="M24.3281 34.6875C26.1846 34.6875 27.9651 33.95 29.2779 32.6372C30.5906 31.3245 31.3281 29.544 31.3281 27.6875C31.3281 25.6875 30.3281 23.7875 28.3281 22.1875C26.3281 20.5875 24.8281 18.1875 24.3281 15.6875C23.8281 18.1875 22.3281 20.5875 20.3281 22.1875C18.3281 23.7875 17.3281 25.6875 17.3281 27.6875C17.3281 29.544 18.0656 31.3245 19.3784 32.6372C20.6911 33.95 22.4716 34.6875 24.3281 34.6875Z" stroke="white" stroke-width="2" stroke-linecap="round" stroke-linejoin="round"/>
</svg>
