<svg width="49" height="49" viewBox="0 0 49 49" fill="none" xmlns="http://www.w3.org/2000/svg">
<path d="M0.328125 10.6875C0.328125 5.16465 4.80528 0.6875 10.3281 0.6875H38.3281C43.851 0.6875 48.3281 5.16465 48.3281 10.6875V38.6875C48.3281 44.2103 43.851 48.6875 38.3281 48.6875H10.3281C4.80528 48.6875 0.328125 44.2103 0.328125 38.6875V10.6875Z" fill="#AD46FF"/>
<path d="M24.3281 34.6875C21.676 34.6875 19.1324 33.6339 17.2571 31.7586C15.3817 29.8832 14.3281 27.3397 14.3281 24.6875C14.3281 22.0353 15.3817 19.4918 17.2571 17.6164C19.1324 15.7411 21.676 14.6875 24.3281 14.6875C26.9803 14.6875 29.5238 15.6357 31.3992 17.3235C33.2746 19.0114 34.3281 21.3006 34.3281 23.6875C34.3281 25.0136 33.8013 26.2854 32.8637 27.223C31.926 28.1607 30.6542 28.6875 29.3281 28.6875H27.0781C26.7531 28.6875 26.4346 28.778 26.1581 28.9489C25.8816 29.1197 25.6582 29.3642 25.5129 29.6549C25.3675 29.9456 25.306 30.271 25.3352 30.5947C25.3644 30.9183 25.4831 31.2275 25.6781 31.4875L25.9781 31.8875C26.1731 32.1475 26.2919 32.4567 26.3211 32.7803C26.3502 33.104 26.2887 33.4294 26.1434 33.7201C25.998 34.0108 25.7746 34.2553 25.4982 34.4261C25.2217 34.597 24.9031 34.6875 24.5781 34.6875H24.3281Z" stroke="white" stroke-width="2" stroke-linecap="round" stroke-linejoin="round"/>
<path d="M25.8281 19.6875C26.1043 19.6875 26.3281 19.4636 26.3281 19.1875C26.3281 18.9114 26.1043 18.6875 25.8281 18.6875C25.552 18.6875 25.3281 18.9114 25.3281 19.1875C25.3281 19.4636 25.552 19.6875 25.8281 19.6875Z" fill="white" stroke="white" stroke-width="2" stroke-linecap="round" stroke-linejoin="round"/>
<path d="M29.8281 23.6875C30.1043 23.6875 30.3281 23.4636 30.3281 23.1875C30.3281 22.9114 30.1043 22.6875 29.8281 22.6875C29.552 22.6875 29.3281 22.9114 29.3281 23.1875C29.3281 23.4636 29.552 23.6875 29.8281 23.6875Z" fill="white" stroke="white" stroke-width="2" stroke-linecap="round" stroke-linejoin="round"/>
<path d="M18.8281 25.6875C19.1043 25.6875 19.3281 25.4636 19.3281 25.1875C19.3281 24.9114 19.1043 24.6875 18.8281 24.6875C18.552 24.6875 18.3281 24.9114 18.3281 25.1875C18.3281 25.4636 18.552 25.6875 18.8281 25.6875Z" fill="white" stroke="white" stroke-width="2" stroke-linecap="round" stroke-linejoin="round"/>
<path d="M20.8281 20.6875C21.1043 20.6875 21.3281 20.4636 21.3281 20.1875C21.3281 19.9114 21.1043 19.6875 20.8281 19.6875C20.552 19.6875 20.3281 19.9114 20.3281 20.1875C20.3281 20.4636 20.552 20.6875 20.8281 20.6875Z" fill="white" stroke="white" stroke-width="2" stroke-linecap="round" stroke-linejoin="round"/>
</svg>
