<svg width="49" height="49" viewBox="0 0 49 49" fill="none" xmlns="http://www.w3.org/2000/svg">
<path d="M0.65625 10.6875C0.65625 5.16465 5.1334 0.6875 10.6562 0.6875H38.6563C44.1791 0.6875 48.6562 5.16465 48.6562 10.6875V38.6875C48.6562 44.2103 44.1791 48.6875 38.6563 48.6875H10.6562C5.1334 48.6875 0.65625 44.2103 0.65625 38.6875V10.6875Z" fill="#2B7FFF"/>
<path d="M32.6562 25.6875C32.6562 30.6875 29.1562 33.1875 24.9963 34.6375C24.7784 34.7113 24.5418 34.7077 24.3263 34.6275C20.1562 33.1875 16.6562 30.6875 16.6562 25.6875V18.6875C16.6562 18.4222 16.7616 18.1679 16.9491 17.9804C17.1367 17.7928 17.391 17.6875 17.6562 17.6875C19.6562 17.6875 22.1562 16.4875 23.8962 14.9675C24.1081 14.7865 24.3776 14.687 24.6562 14.687C24.9349 14.687 25.2044 14.7865 25.4163 14.9675C27.1663 16.4975 29.6562 17.6875 31.6562 17.6875C31.9215 17.6875 32.1758 17.7928 32.3634 17.9804C32.5509 18.1679 32.6562 18.4222 32.6562 18.6875V25.6875Z" stroke="white" stroke-width="2" stroke-linecap="round" stroke-linejoin="round"/>
</svg>
