<svg width="49" height="49" viewBox="0 0 49 49" fill="none" xmlns="http://www.w3.org/2000/svg">
<path d="M0.984375 10.6875C0.984375 5.16465 5.46153 0.6875 10.9844 0.6875H38.9844C44.5072 0.6875 48.9844 5.16465 48.9844 10.6875V38.6875C48.9844 44.2103 44.5072 48.6875 38.9844 48.6875H10.9844C5.46153 48.6875 0.984375 44.2103 0.984375 38.6875V10.6875Z" fill="#F6339A"/>
<path d="M14.9844 22.1875C14.9844 21.0747 15.322 19.9881 15.9525 19.0712C16.583 18.1543 17.4769 17.4502 18.516 17.0519C19.5551 16.6537 20.6905 16.58 21.7724 16.8406C22.8542 17.1012 23.8316 17.6838 24.5754 18.5115C24.6278 18.5676 24.6911 18.6122 24.7615 18.6427C24.8318 18.6733 24.9077 18.689 24.9844 18.689C25.0611 18.689 25.1369 18.6733 25.2073 18.6427C25.2777 18.6122 25.341 18.5676 25.3934 18.5115C26.1348 17.6784 27.1124 17.0909 28.196 16.8271C29.2796 16.5634 30.4179 16.6359 31.4592 17.035C32.5006 17.4342 33.3958 18.141 34.0255 19.0614C34.6552 19.9819 34.9897 21.0723 34.9844 22.1875C34.9844 24.4775 33.4844 26.1875 31.9844 27.6875L26.4924 33.0005C26.306 33.2145 26.0763 33.3865 25.8184 33.5048C25.5605 33.6232 25.2804 33.6854 24.9967 33.6872C24.7129 33.689 24.432 33.6304 24.1727 33.5153C23.9133 33.4002 23.6814 33.2312 23.4924 33.0195L17.9844 27.6875C16.4844 26.1875 14.9844 24.4875 14.9844 22.1875Z" stroke="white" stroke-width="2" stroke-linecap="round" stroke-linejoin="round"/>
</svg>
