<svg width="49" height="49" viewBox="0 0 49 49" fill="none" xmlns="http://www.w3.org/2000/svg">
<path d="M0.65625 10.6875C0.65625 5.16465 5.1334 0.6875 10.6562 0.6875H38.6563C44.1791 0.6875 48.6562 5.16465 48.6562 10.6875V38.6875C48.6562 44.2103 44.1791 48.6875 38.6563 48.6875H10.6562C5.1334 48.6875 0.65625 44.2103 0.65625 38.6875V10.6875Z" fill="#00C950"/>
<path d="M23.6562 32.6875C21.9003 32.6928 20.2065 32.038 18.9108 30.8529C17.615 29.6678 16.812 28.039 16.661 26.2896C16.5099 24.5402 17.0219 22.7979 18.0954 21.4082C19.1689 20.0186 20.7254 19.0832 22.4562 18.7875C28.1562 17.6875 29.6562 17.1675 31.6562 14.6875C32.6562 16.6875 33.6562 18.8675 33.6562 22.6875C33.6562 28.1875 28.8762 32.6875 23.6562 32.6875Z" stroke="white" stroke-width="2" stroke-linecap="round" stroke-linejoin="round"/>
<path d="M14.6562 33.6875C14.6562 30.6875 16.5062 28.3275 19.7362 27.6875C22.1562 27.2075 24.6562 25.6875 25.6562 24.6875" stroke="white" stroke-width="2" stroke-linecap="round" stroke-linejoin="round"/>
</svg>
