<svg width="49" height="49" viewBox="0 0 49 49" fill="none" xmlns="http://www.w3.org/2000/svg">
<path d="M0.984375 10.6875C0.984375 5.16465 5.46153 0.6875 10.9844 0.6875H38.9844C44.5072 0.6875 48.9844 5.16465 48.9844 10.6875V38.6875C48.9844 44.2104 44.5072 48.6875 38.9844 48.6875H10.9844C5.46153 48.6875 0.984375 44.2103 0.984375 38.6875V10.6875Z" fill="#FF6900"/>
<path d="M28.4614 25.5774L29.9764 34.1034C29.9933 34.2038 29.9793 34.307 29.936 34.3991C29.8927 34.4913 29.8224 34.5681 29.7343 34.6192C29.6462 34.6703 29.5447 34.6933 29.4432 34.6851C29.3417 34.6769 29.2451 34.6379 29.1664 34.5734L25.5864 31.8864C25.4135 31.7573 25.2036 31.6875 24.9879 31.6875C24.7721 31.6875 24.5622 31.7573 24.3894 31.8864L20.8034 34.5724C20.7247 34.6368 20.6282 34.6757 20.5269 34.6839C20.4255 34.6921 20.324 34.6692 20.236 34.6183C20.148 34.5673 20.0776 34.4907 20.0343 34.3987C19.9909 34.3067 19.9767 34.2037 19.9934 34.1034L21.5074 25.5774" stroke="white" stroke-width="2" stroke-linecap="round" stroke-linejoin="round"/>
<path d="M24.9844 26.6875C28.2981 26.6875 30.9844 24.0012 30.9844 20.6875C30.9844 17.3738 28.2981 14.6875 24.9844 14.6875C21.6707 14.6875 18.9844 17.3738 18.9844 20.6875C18.9844 24.0012 21.6707 26.6875 24.9844 26.6875Z" stroke="white" stroke-width="2" stroke-linecap="round" stroke-linejoin="round"/>
</svg>
